<mxfile host="app.diagrams.net" agent="Mozilla/5.0 (Windows NT 10.0; Win64; x64) AppleWebKit/537.36 (KHTML, like Gecko) Chrome/128.0.0.0 Safari/537.36" version="26.2.9">
  <diagram name="1 oldal" id="iIeaJ-6lvh8l3AOCH1jy">
    <mxGraphModel dx="1313" dy="822" grid="1" gridSize="10" guides="1" tooltips="1" connect="1" arrows="1" fold="1" page="1" pageScale="1" pageWidth="827" pageHeight="1169" math="0" shadow="0">
      <root>
        <mxCell id="0" />
        <mxCell id="1" parent="0" />
        <mxCell id="E3SQWJ4fEatvkx2Ej9je-1" value="" style="group" vertex="1" connectable="0" parent="1">
          <mxGeometry x="63" y="250" width="700" height="740" as="geometry" />
        </mxCell>
        <mxCell id="E3SQWJ4fEatvkx2Ej9je-2" value="" style="group" vertex="1" connectable="0" parent="E3SQWJ4fEatvkx2Ej9je-1">
          <mxGeometry x="150" width="360" height="740" as="geometry" />
        </mxCell>
        <mxCell id="E3SQWJ4fEatvkx2Ej9je-3" value="" style="rounded=0;whiteSpace=wrap;html=1;" vertex="1" parent="E3SQWJ4fEatvkx2Ej9je-2">
          <mxGeometry width="360" height="740" as="geometry" />
        </mxCell>
        <mxCell id="E3SQWJ4fEatvkx2Ej9je-4" value="Szolgáltatások kezelése" style="text;html=1;align=center;verticalAlign=middle;whiteSpace=wrap;rounded=0;fontSize=18;" vertex="1" parent="E3SQWJ4fEatvkx2Ej9je-2">
          <mxGeometry x="76.25" y="10" width="212.5" height="30" as="geometry" />
        </mxCell>
        <mxCell id="E3SQWJ4fEatvkx2Ej9je-5" value="UC_SZO_List&amp;nbsp;&lt;br&gt;Szolgáltatások listázása" style="ellipse;whiteSpace=wrap;html=1;fillColor=#fff2cc;strokeColor=#d6b656;" vertex="1" parent="E3SQWJ4fEatvkx2Ej9je-2">
          <mxGeometry x="92.5" y="80" width="170" height="100" as="geometry" />
        </mxCell>
        <mxCell id="E3SQWJ4fEatvkx2Ej9je-6" value="UC_SZO_Create&lt;br&gt;Szolgáltatás létrehozása" style="ellipse;whiteSpace=wrap;html=1;fillColor=#fff2cc;strokeColor=#d6b656;" vertex="1" parent="E3SQWJ4fEatvkx2Ej9je-2">
          <mxGeometry x="95" y="335" width="170" height="100" as="geometry" />
        </mxCell>
        <mxCell id="E3SQWJ4fEatvkx2Ej9je-7" value="UC_SZO_Read&lt;br&gt;Szolgáltatás megtekintése" style="ellipse;whiteSpace=wrap;html=1;fillColor=#fff2cc;strokeColor=#d6b656;" vertex="1" parent="E3SQWJ4fEatvkx2Ej9je-2">
          <mxGeometry x="95" y="220" width="170" height="100" as="geometry" />
        </mxCell>
        <mxCell id="E3SQWJ4fEatvkx2Ej9je-8" value="UC_SZO_Update&lt;br&gt;Szolgáltatás módosítása" style="ellipse;whiteSpace=wrap;html=1;fillColor=#fff2cc;strokeColor=#d6b656;" vertex="1" parent="E3SQWJ4fEatvkx2Ej9je-2">
          <mxGeometry x="92.5" y="470" width="170" height="100" as="geometry" />
        </mxCell>
        <mxCell id="E3SQWJ4fEatvkx2Ej9je-9" value="UC_SZO_Delete&lt;br&gt;Szolgáltatás törlése" style="ellipse;whiteSpace=wrap;html=1;fillColor=#fff2cc;strokeColor=#d6b656;" vertex="1" parent="E3SQWJ4fEatvkx2Ej9je-2">
          <mxGeometry x="97.5" y="610" width="170" height="100" as="geometry" />
        </mxCell>
        <mxCell id="E3SQWJ4fEatvkx2Ej9je-10" value="&lt;font style=&quot;font-size: 18px;&quot;&gt;Látogató&lt;/font&gt;" style="shape=umlActor;verticalLabelPosition=bottom;verticalAlign=top;html=1;outlineConnect=0;fillColor=#d5e8d4;strokeColor=#82b366;" vertex="1" parent="E3SQWJ4fEatvkx2Ej9je-1">
          <mxGeometry y="270" width="100" height="200" as="geometry" />
        </mxCell>
        <mxCell id="E3SQWJ4fEatvkx2Ej9je-11" value="&lt;font style=&quot;font-size: 18px;&quot;&gt;Adminisztrátor&lt;/font&gt;" style="shape=umlActor;verticalLabelPosition=bottom;verticalAlign=top;html=1;outlineConnect=0;fillColor=#f8cecc;strokeColor=#b85450;" vertex="1" parent="E3SQWJ4fEatvkx2Ej9je-1">
          <mxGeometry x="600" y="270" width="100" height="200" as="geometry" />
        </mxCell>
        <mxCell id="E3SQWJ4fEatvkx2Ej9je-12" value="" style="endArrow=none;html=1;rounded=0;entryX=0;entryY=0.5;entryDx=0;entryDy=0;exitX=1;exitY=0.3333333333333333;exitDx=0;exitDy=0;exitPerimeter=0;" edge="1" parent="E3SQWJ4fEatvkx2Ej9je-1" source="E3SQWJ4fEatvkx2Ej9je-10" target="E3SQWJ4fEatvkx2Ej9je-5">
          <mxGeometry width="50" height="50" relative="1" as="geometry">
            <mxPoint x="110" y="280" as="sourcePoint" />
            <mxPoint x="160" y="230" as="targetPoint" />
          </mxGeometry>
        </mxCell>
        <mxCell id="E3SQWJ4fEatvkx2Ej9je-13" value="" style="endArrow=none;html=1;rounded=0;entryX=0;entryY=0.5;entryDx=0;entryDy=0;exitX=1;exitY=0.3333333333333333;exitDx=0;exitDy=0;exitPerimeter=0;" edge="1" parent="E3SQWJ4fEatvkx2Ej9je-1" source="E3SQWJ4fEatvkx2Ej9je-10" target="E3SQWJ4fEatvkx2Ej9je-7">
          <mxGeometry width="50" height="50" relative="1" as="geometry">
            <mxPoint x="107.5" y="330" as="sourcePoint" />
            <mxPoint x="242.5" y="190" as="targetPoint" />
          </mxGeometry>
        </mxCell>
        <mxCell id="E3SQWJ4fEatvkx2Ej9je-14" value="" style="endArrow=none;html=1;rounded=0;entryX=0;entryY=0.3333333333333333;entryDx=0;entryDy=0;entryPerimeter=0;exitX=1;exitY=0.5;exitDx=0;exitDy=0;" edge="1" parent="E3SQWJ4fEatvkx2Ej9je-1" source="E3SQWJ4fEatvkx2Ej9je-7" target="E3SQWJ4fEatvkx2Ej9je-11">
          <mxGeometry width="50" height="50" relative="1" as="geometry">
            <mxPoint x="470" y="200" as="sourcePoint" />
            <mxPoint x="600" y="300" as="targetPoint" />
          </mxGeometry>
        </mxCell>
        <mxCell id="E3SQWJ4fEatvkx2Ej9je-15" value="" style="endArrow=none;html=1;rounded=0;entryX=0;entryY=0.3333333333333333;entryDx=0;entryDy=0;entryPerimeter=0;exitX=1;exitY=0.5;exitDx=0;exitDy=0;" edge="1" parent="E3SQWJ4fEatvkx2Ej9je-1" source="E3SQWJ4fEatvkx2Ej9je-5" target="E3SQWJ4fEatvkx2Ej9je-11">
          <mxGeometry width="50" height="50" relative="1" as="geometry">
            <mxPoint x="470" y="150" as="sourcePoint" />
            <mxPoint x="600" y="340" as="targetPoint" />
          </mxGeometry>
        </mxCell>
        <mxCell id="E3SQWJ4fEatvkx2Ej9je-16" value="" style="endArrow=none;html=1;rounded=0;entryX=0;entryY=0.3333333333333333;entryDx=0;entryDy=0;entryPerimeter=0;exitX=1;exitY=0.5;exitDx=0;exitDy=0;" edge="1" parent="E3SQWJ4fEatvkx2Ej9je-1" source="E3SQWJ4fEatvkx2Ej9je-6" target="E3SQWJ4fEatvkx2Ej9je-11">
          <mxGeometry width="50" height="50" relative="1" as="geometry">
            <mxPoint x="460" y="260" as="sourcePoint" />
            <mxPoint x="590" y="370" as="targetPoint" />
          </mxGeometry>
        </mxCell>
        <mxCell id="E3SQWJ4fEatvkx2Ej9je-17" value="" style="endArrow=none;html=1;rounded=0;entryX=0;entryY=0.3333333333333333;entryDx=0;entryDy=0;entryPerimeter=0;exitX=1;exitY=0.5;exitDx=0;exitDy=0;" edge="1" parent="E3SQWJ4fEatvkx2Ej9je-1" source="E3SQWJ4fEatvkx2Ej9je-8" target="E3SQWJ4fEatvkx2Ej9je-11">
          <mxGeometry width="50" height="50" relative="1" as="geometry">
            <mxPoint x="460" y="310" as="sourcePoint" />
            <mxPoint x="590" y="410" as="targetPoint" />
          </mxGeometry>
        </mxCell>
        <mxCell id="E3SQWJ4fEatvkx2Ej9je-18" value="" style="endArrow=none;html=1;rounded=0;entryX=0;entryY=0.3333333333333333;entryDx=0;entryDy=0;entryPerimeter=0;exitX=1;exitY=0.5;exitDx=0;exitDy=0;" edge="1" parent="E3SQWJ4fEatvkx2Ej9je-1" source="E3SQWJ4fEatvkx2Ej9je-9" target="E3SQWJ4fEatvkx2Ej9je-11">
          <mxGeometry width="50" height="50" relative="1" as="geometry">
            <mxPoint x="440" y="380" as="sourcePoint" />
            <mxPoint x="570" y="480" as="targetPoint" />
          </mxGeometry>
        </mxCell>
      </root>
    </mxGraphModel>
  </diagram>
</mxfile>
